<svg width="667" height="686" viewBox="0 0 667 686" fill="none" xmlns="http://www.w3.org/2000/svg">
<path d="M27 27H95.0377L108.645 97.181M108.645 97.181H639.339L503.264 377.905H163.075M108.645 97.181L163.075 377.905M163.075 377.905L85.0702 458.367C63.6383 480.474 78.8107 518.267 109.122 518.267H503.264M503.264 518.267C485.219 518.267 467.914 525.661 455.154 538.822C442.395 551.984 435.226 569.835 435.226 588.448C435.226 607.061 442.395 624.912 455.154 638.073C467.914 651.235 485.219 658.629 503.264 658.629C521.309 658.629 538.614 651.235 551.374 638.073C564.133 624.912 571.302 607.061 571.302 588.448C571.302 569.835 564.133 551.984 551.374 538.822C538.614 525.661 521.309 518.267 503.264 518.267ZM231.113 588.448C231.113 607.061 223.945 624.912 211.185 638.073C198.426 651.235 181.12 658.629 163.075 658.629C145.031 658.629 127.725 651.235 114.965 638.073C102.206 624.912 95.0377 607.061 95.0377 588.448C95.0377 569.835 102.206 551.984 114.965 538.822C127.725 525.661 145.031 518.267 163.075 518.267C181.12 518.267 198.426 525.661 211.185 538.822C223.945 551.984 231.113 569.835 231.113 588.448Z" stroke="black" stroke-width="53.9609" stroke-linecap="round" stroke-linejoin="round"/>
</svg>
