<svg width="32" height="32" viewBox="0 0 32 32" fill="none" xmlns="http://www.w3.org/2000/svg">
<path d="M14.7208 0.836426V7.89043H17.0721V0.836426H14.7208ZM5.92167 4.48283L4.2592 6.1453L8.40159 10.2969L10.0732 8.62522L5.92167 4.48283ZM25.8713 4.48283L20.838 9.50697L22.5096 11.1786L27.5337 6.1453L25.8713 4.48283ZM0.612793 14.9444V17.2958H5.31546V14.9444H0.612793ZM24.1261 14.9444V17.2958H31.1801V14.9444H24.1261ZM6.63809 23.716L4.2592 26.0949L5.92167 27.7574L8.30974 25.3785L6.63809 23.716ZM25.8713 24.4324L24.2088 26.0949L25.8713 27.7574L27.5337 26.0949L25.8713 24.4324ZM14.7208 29.0524V31.4038H17.0721V29.0524H14.7208Z" fill="#FAFBED"/>
</svg>
