<svg width="27" height="26" viewBox="0 0 27 26" fill="none" xmlns="http://www.w3.org/2000/svg">
<path d="M13.3956 -0.00915527C6.41686 -0.00915527 0.731934 5.67577 0.731934 12.6545C0.731934 19.6332 6.41686 25.3181 13.3956 25.3181C20.3742 25.3181 26.0592 19.6332 26.0592 12.6545C26.0592 5.67577 20.3742 -0.00915527 13.3956 -0.00915527ZM13.3956 1.93909C19.324 1.93909 24.1109 6.726 24.1109 12.6545C24.1109 18.5829 19.324 23.3698 13.3956 23.3698C7.46709 23.3698 2.68018 18.5829 2.68018 12.6545C2.68018 6.726 7.46709 1.93909 13.3956 1.93909ZM18.5478 8.07303L11.4473 15.1735L8.23574 11.9695L6.86587 13.3394L11.4473 17.9284L19.9328 9.4429L18.5478 8.07303Z" fill="#FAFBED"/>
</svg>
