<svg width="37" height="25" viewBox="0 0 37 25" fill="none" xmlns="http://www.w3.org/2000/svg">
<path d="M3.64113 0.387207C1.79656 0.387207 0.28418 1.89958 0.28418 3.74416V19.4099C0.28418 21.2545 1.79656 22.7669 3.64113 22.7669H4.96992C5.43325 24.0607 6.66588 25.0048 8.11706 25.0048C9.56825 25.0048 10.8009 24.0607 11.2642 22.7669H25.0504C25.5138 24.0607 26.7464 25.0048 28.1976 25.0048C29.6488 25.0048 30.8814 24.0607 31.3447 22.7669H32.7347C34.5705 22.7669 36.0917 21.2545 36.0917 19.4099V15.6159C36.0917 14.9515 35.8906 14.2958 35.5234 13.7451L32.0353 8.596C31.4059 7.6606 30.3569 7.10111 29.2379 7.10111H22.6638V3.74416C22.6638 1.89958 21.1515 0.387207 19.3069 0.387207H3.64113ZM3.64113 2.62517H19.3069C19.9363 2.62517 20.4259 3.11473 20.4259 3.74416V20.5289H11.2642C10.8009 19.2351 9.56825 18.2909 8.11706 18.2909C6.66588 18.2909 5.43325 19.2351 4.96992 20.5289H3.64113C3.0117 20.5289 2.52215 20.0394 2.52215 19.4099V3.74416C2.52215 3.11473 3.0117 2.62517 3.64113 2.62517ZM22.6638 9.33908H29.2379C29.6138 9.33908 29.9635 9.5314 30.1733 9.83737V9.84612L33.6614 14.9952C33.7837 15.1788 33.8537 15.3886 33.8537 15.6159V19.4099C33.8537 20.0394 33.3641 20.5289 32.7347 20.5289H31.3447C30.8814 19.2351 29.6488 18.2909 28.1976 18.2909C26.7464 18.2909 25.5138 19.2351 25.0504 20.5289H22.6638V9.33908ZM8.11706 20.5289C8.74649 20.5289 9.23605 21.0185 9.23605 21.6479C9.23605 22.2773 8.74649 22.7669 8.11706 22.7669C7.48764 22.7669 6.99808 22.2773 6.99808 21.6479C6.99808 21.0185 7.48764 20.5289 8.11706 20.5289ZM28.1976 20.5289C28.827 20.5289 29.3166 21.0185 29.3166 21.6479C29.3166 22.2773 28.827 22.7669 28.1976 22.7669C27.5681 22.7669 27.0786 22.2773 27.0786 21.6479C27.0786 21.0185 27.5681 20.5289 28.1976 20.5289Z" fill="#FAFBED"/>
</svg>
