<svg width="29" height="30" viewBox="0 0 29 30" fill="none" xmlns="http://www.w3.org/2000/svg">
<path d="M14.5412 0.351929C11.3326 0.351929 8.62132 2.42529 7.69253 5.37115C7.18591 5.23042 6.66054 5.15537 6.13516 5.15537C2.82341 5.15537 0.130859 7.84792 0.130859 11.1597C0.130859 14.0586 2.19484 16.4885 4.9343 17.042V27.9717C4.9343 28.6378 5.46906 29.1726 6.13516 29.1726H22.9472C23.6133 29.1726 24.1481 28.6378 24.1481 27.9717V17.042C26.8875 16.4885 28.9515 14.0586 28.9515 11.1597C28.9515 7.84792 26.259 5.15537 22.9472 5.15537C22.4218 5.15537 21.8965 5.23042 21.3805 5.37115C20.4611 2.42529 17.7497 0.351929 14.5412 0.351929ZM14.5412 2.75365C17.0367 2.75365 19.0819 4.63937 19.2977 7.1443L19.4572 9.07693L21.1084 8.08247C21.6901 7.73534 22.3092 7.55709 22.9472 7.55709C24.9361 7.55709 26.5498 9.17075 26.5498 11.1597C26.5498 13.1486 24.9361 14.7623 22.9472 14.7623H20.5455C19.8794 14.7623 19.3446 15.297 19.3446 15.9631C19.3446 16.6292 19.8794 17.164 20.5455 17.164H21.7463V21.9674H7.33602V17.164H8.53688C9.20299 17.164 9.73774 16.6292 9.73774 15.9631C9.73774 15.297 9.20299 14.7623 8.53688 14.7623H6.13516C4.14624 14.7623 2.53258 13.1486 2.53258 11.1597C2.53258 9.17075 4.14624 7.55709 6.13516 7.55709C6.77312 7.55709 7.39231 7.73534 7.97398 8.08247L9.62516 9.07693L9.78465 7.1443C10.0004 4.63937 12.0456 2.75365 14.5412 2.75365ZM7.33602 24.3691H21.7463V26.7709H7.33602V24.3691Z" fill="#FAFBED"/>
</svg>
